<svg width="43" height="43" viewBox="0 0 43 43" fill="none" xmlns="http://www.w3.org/2000/svg">
<path d="M11.6754 20.7253L20.9654 35.3279C21.0226 35.4178 21.1015 35.4918 21.1949 35.5431C21.2882 35.5944 21.393 35.6213 21.4996 35.6213C21.6061 35.6213 21.7109 35.5944 21.8043 35.5431C21.8977 35.4918 21.9766 35.4178 22.0337 35.3279L31.3231 20.7253C31.3346 20.7071 31.3452 20.6883 31.3546 20.6689C32.9117 18.5724 33.7508 16.0295 33.7472 13.418C33.7472 10.1698 32.4568 7.05452 30.1599 4.75765C27.8631 2.46078 24.7478 1.17041 21.4996 1.17041C18.2513 1.17041 15.1361 2.46078 12.8392 4.75765C10.5423 7.05452 9.25197 10.1698 9.25197 13.418C9.24825 16.0281 10.0866 18.5698 11.6425 20.6655C11.6523 20.6861 11.6633 20.7061 11.6754 20.7253ZM21.4996 2.43555C24.4112 2.43893 27.2026 3.59711 29.2614 5.65601C31.3202 7.71491 32.4782 10.5064 32.4814 13.418C32.484 15.7954 31.7075 18.1082 30.2709 20.0024C30.2386 20.0452 30.2121 20.0923 30.1923 20.1421L21.4996 33.8094L12.8102 20.1509C12.7895 20.0988 12.762 20.0498 12.7282 20.0051C11.2916 18.1109 10.5152 15.7981 10.5178 13.4207C10.5203 10.5086 11.678 7.71645 13.7368 5.65696C15.7957 3.59748 18.5875 2.43893 21.4996 2.43555Z" fill="black"/>
<path d="M27.3825 34.2246C27.2152 34.2109 27.0493 34.2642 26.9213 34.3728C26.7933 34.4814 26.7136 34.6365 26.6999 34.8038C26.6862 34.9711 26.7395 35.137 26.8481 35.265C26.9567 35.3931 27.1117 35.4727 27.2791 35.4864C31.2472 35.8123 33.6162 36.6998 33.6162 37.8595C33.6162 38.7188 29.339 40.3904 21.4996 40.3904C13.6602 40.3904 9.383 38.7188 9.383 37.8595C9.383 37.3072 9.98769 35.9702 15.6187 35.4945C15.7838 35.4776 15.9357 35.3966 16.0416 35.2688C16.1476 35.1411 16.1991 34.9768 16.1851 34.8114C16.1711 34.646 16.0927 34.4928 15.9667 34.3847C15.8408 34.2765 15.6774 34.2222 15.5118 34.2334C10.5359 34.654 8.11719 35.8405 8.11719 37.8615C8.11719 40.4684 15.0543 41.6562 21.4996 41.6562C27.9449 41.6562 34.882 40.4684 34.882 37.8595C34.882 35.8284 32.429 34.6392 27.3825 34.2246ZM14.7137 15.5311H16.3933V20.8624C16.3933 20.9455 16.4097 21.0277 16.4415 21.1045C16.4733 21.1812 16.52 21.251 16.5788 21.3097C16.6375 21.3684 16.7073 21.415 16.7841 21.4467C16.8609 21.4784 16.9432 21.4947 17.0262 21.4946H25.9723C26.0553 21.4947 26.1376 21.4784 26.2144 21.4467C26.2912 21.415 26.361 21.3684 26.4198 21.3097C26.4785 21.251 26.5252 21.1812 26.557 21.1045C26.5888 21.0277 26.6052 20.9455 26.6052 20.8624V15.5311H28.2849C28.5877 15.541 28.8863 15.4573 29.1399 15.2914C29.3934 15.1254 29.5897 14.8854 29.7018 14.6039C29.7888 14.3577 29.7951 14.0903 29.72 13.8402C29.6449 13.5902 29.4922 13.3706 29.2839 13.2131L22.498 7.70976C22.2117 7.48911 21.8604 7.36945 21.4989 7.36945C21.1375 7.36945 20.7862 7.48911 20.4998 7.70976L13.7139 13.2124C13.5057 13.3698 13.3531 13.5893 13.2779 13.8392C13.2028 14.0891 13.2091 14.3565 13.296 14.6025C13.4081 14.8843 13.6044 15.1247 13.8581 15.2909C14.1118 15.457 14.4105 15.5409 14.7137 15.5311ZM22.5974 20.2295H20.649C20.7268 20.1265 20.7702 20.0017 20.7733 19.8727V17.6468C20.7701 17.5329 20.7898 17.4196 20.8311 17.3135C20.8725 17.2074 20.9347 17.1106 21.0141 17.029C21.0935 16.9473 21.1884 16.8824 21.2934 16.8381C21.3983 16.7938 21.511 16.7709 21.6249 16.7709C21.7388 16.7709 21.8515 16.7938 21.9564 16.8381C22.0614 16.8824 22.1563 16.9473 22.2357 17.029C22.3151 17.1106 22.3773 17.2074 22.4187 17.3135C22.46 17.4196 22.4797 17.5329 22.4765 17.6468V19.8727C22.4782 20.0012 22.52 20.1259 22.5961 20.2295H22.5974ZM21.298 8.69271C21.3579 8.65335 21.428 8.63237 21.4996 8.63237C21.5712 8.63237 21.6413 8.65335 21.7012 8.69271L28.4871 14.1954L28.5093 14.1799C28.5025 14.1967 28.4421 14.2646 28.2849 14.2646H25.9723C25.8044 14.2646 25.6434 14.3313 25.5247 14.4499C25.406 14.5686 25.3394 14.7296 25.3394 14.8975V20.2288H23.6133C23.6906 20.1256 23.7338 20.0009 23.7369 19.872V17.6468C23.7441 17.3644 23.6946 17.0834 23.5914 16.8204C23.4883 16.5574 23.3335 16.3177 23.1363 16.1154C22.939 15.9132 22.7033 15.7524 22.443 15.6427C22.1827 15.5329 21.903 15.4764 21.6205 15.4764C21.338 15.4764 21.0584 15.5329 20.7981 15.6427C20.5377 15.7524 20.302 15.9132 20.1048 16.1154C19.9076 16.3177 19.7528 16.5574 19.6496 16.8204C19.5465 17.0834 19.497 17.3644 19.5041 17.6468V19.8727C19.5072 20.0017 19.5507 20.1265 19.6284 20.2295H17.6598V14.8981C17.6599 14.8151 17.6436 14.7328 17.6119 14.656C17.5802 14.5792 17.5336 14.5094 17.4749 14.4507C17.4162 14.3919 17.3464 14.3452 17.2697 14.3134C17.1929 14.2816 17.1107 14.2652 17.0276 14.2652H14.7137C14.5571 14.2652 14.4953 14.1981 14.5121 14.1981L21.298 8.69271Z" fill="black"/>
</svg>
