<svg width="24" height="24" viewBox="0 0 24 24" fill="none" xmlns="http://www.w3.org/2000/svg">
<path d="M19.56 14.81C18.4696 14.8123 17.3859 14.6402 16.35 14.3C16.1062 14.221 15.8459 14.2071 15.5951 14.2598C15.3442 14.3124 15.1115 14.4297 14.92 14.6L12.92 16.13C10.7563 15.0482 9.00183 13.2937 7.92 11.13L9.4 9.13001C9.5886 8.94127 9.72188 8.70446 9.78534 8.4453C9.84881 8.18614 9.84005 7.91454 9.76 7.66001C9.42002 6.62402 9.24785 5.54035 9.25 4.45001C9.25012 4.25531 9.21102 4.06258 9.13504 3.88332C9.05907 3.70406 8.94777 3.54193 8.80778 3.40661C8.6678 3.27129 8.50199 3.16555 8.32026 3.09569C8.13852 3.02584 7.94458 2.99329 7.75 3.00001H4.44C4.0589 3.00263 3.69415 3.15518 3.42466 3.42467C3.15517 3.69416 3.00262 4.05891 3 4.44001C3.00265 8.83118 4.74821 13.0417 7.85324 16.1468C10.9583 19.2518 15.1688 20.9974 19.56 21C19.9411 20.9974 20.3059 20.8448 20.5753 20.5753C20.8448 20.3059 20.9974 19.9411 21 19.56V16.26C21 15.8772 20.8486 15.5099 20.5788 15.2382C20.3091 14.9666 19.9428 14.8126 19.56 14.81Z" fill="#303C42"/>
</svg>
